<svg width="787" height="260" viewBox="0 0 787 260" fill="none" xmlns="http://www.w3.org/2000/svg">
<path d="M693.207 50.9717C717.788 50.9717 735.968 56.6353 747.747 67.9625C759.781 79.0264 765.798 96.4124 765.798 120.121L766.183 249.33L786.155 249.33L786.155 257.233L720.092 257.233C715.74 257.233 712.155 255.784 709.338 252.887C706.522 249.989 705.113 246.301 705.113 241.823L705.113 119.33C704.601 100.891 703.705 87.8511 702.425 80.2118C700.888 72.309 698.072 66.9088 693.975 64.0112C690.134 61.1135 683.861 59.6647 675.155 59.6647C668.241 59.6647 661.456 61.6404 654.798 65.5917C648.397 69.2797 643.276 74.2847 639.435 80.6069C635.338 86.6657 633.29 93.1196 633.29 99.9686L633.29 249.33L652.878 249.33L652.878 257.233L549.175 257.233L549.175 249.33L572.22 249.33L572.22 61.2452L549.175 61.2452L549.175 53.3425L617.926 53.3425C627.912 53.3425 632.905 58.611 632.905 69.148L632.905 79.8166C639.307 60.5867 659.407 50.9717 693.207 50.9717Z" fill="#FC6B2D"/>
<path d="M536.838 249.33L536.838 257.233L466.551 257.233C457.076 257.233 452.339 251.965 452.339 241.428L452.339 231.154C444.402 250.384 426.094 259.999 397.415 259.999C359.775 259.999 337.242 249.067 329.817 227.203C326.488 218.51 324.824 207.446 324.824 194.011C324.824 175.045 330.457 160.293 341.723 149.756C352.99 138.955 372.322 133.555 399.72 133.555C421.741 133.555 438.896 135.531 451.187 139.482L451.187 105.896C451.187 88.7731 447.986 76.7873 441.585 69.9382C435.44 62.8258 425.197 59.2695 410.858 59.2695C391.654 59.2695 371.042 62.1672 349.021 67.9625L349.021 60.8501C371.298 54.2645 396.007 50.9717 423.149 50.9717C443.121 50.9717 459.381 52.9473 471.928 56.8987C484.73 60.8501 494.589 67.6991 501.502 77.4458C508.672 87.456 512.256 101.944 512.256 120.911L512.257 249.33L536.838 249.33ZM410.858 250.911C425.197 250.911 436.72 244.457 445.426 231.549C449.267 225.49 451.187 218.905 451.187 211.792L451.187 147.78C438.896 144.092 427.118 142.248 415.851 142.248C398.952 142.248 389.35 146.99 387.045 156.473C385.765 161.742 384.997 169.513 384.741 179.786L384.741 207.446C384.741 220.88 385.509 230.495 387.045 236.291C388.325 242.35 390.63 246.301 393.959 248.145C397.287 249.989 402.921 250.911 410.858 250.911Z" fill="#FC6B2D"/>
<path d="M295.024 251.307C300.913 251.307 305.906 250.78 310.003 249.726L319.221 248.146L319.989 256.444C319.477 256.444 317.941 256.707 315.38 257.234C313.076 257.497 310.899 257.893 308.851 258.419C303.474 259.473 292.207 260 275.051 260C251.751 260 234.467 254.6 223.2 243.799C212.19 232.736 206.685 214.954 206.685 190.456L206.685 61.2462L184.792 61.2462L184.792 53.3435C215.519 53.3435 240.1 35.5623 258.536 -6.44687e-06L267.37 -7.21915e-06L267.37 53.3435L314.228 53.3435L314.228 61.2462L267.37 61.2462L268.138 208.237C268.138 236.95 277.1 251.307 295.024 251.307Z" fill="#FC6B2D"/>
<path d="M90.6465 126.048C94.4873 127.892 97.3039 128.945 99.0963 129.209C113.179 134.741 123.806 139.877 130.975 144.619C138.401 149.361 144.674 155.946 149.795 164.376C155.172 173.596 157.861 185.582 157.861 200.333C157.861 222.724 150.947 238.266 137.12 246.959C123.549 255.652 102.425 259.999 73.7469 259.999C44.3007 259.999 20.7437 255.521 3.07593 246.564L1.15551 201.124L11.1416 201.124C15.4946 201.124 18.3112 203.494 19.5914 208.236C23.4322 221.934 26.889 231.549 29.9616 237.081C33.2903 242.35 38.1554 246.038 44.5567 248.145C50.702 250.252 60.9442 251.569 75.2832 252.096C89.8783 251.833 99.8645 249.33 105.242 244.589C110.619 239.584 113.307 230.759 113.307 218.115C113.307 210.475 112.027 204.548 109.466 200.333C107.162 195.855 102.809 191.772 96.4077 188.084C90.7745 184.923 79.5081 179.786 62.6085 172.674C45.4529 165.825 33.4184 160.425 26.5049 156.473C19.5914 152.258 13.5741 146.331 8.45306 138.692C2.81986 131.053 0.00326368 120.647 0.00326253 107.476C0.00326108 90.8805 6.27659 77.3141 18.8232 66.7771C31.626 56.2402 52.6224 50.9717 81.8126 50.9717C109.21 50.9717 130.079 55.845 144.418 65.5917L146.722 105.896L136.736 105.896C132.639 105.896 129.695 103.393 127.902 98.3881C124.062 86.0071 120.733 77.4458 117.916 72.7042C115.356 67.9625 111.643 64.4063 106.778 62.0355C101.145 59.9281 93.079 58.8744 82.5808 58.8744C68.2417 58.8744 58.3836 61.2452 53.0065 65.9869C47.8854 70.4651 45.3249 78.2361 45.3249 89.2999C45.3249 94.8319 46.2211 99.1783 48.0134 102.339C50.0619 105.237 54.1588 108.53 60.3041 112.218C67.4736 116.433 77.5877 121.043 90.6465 126.048Z" fill="#FC6B2D"/>
</svg>
