<svg width="1080" height="1080" viewBox="0 0 1080 1080" fill="none" xmlns="http://www.w3.org/2000/svg">
<g clip-path="url(#clip0_1_10)">
<path d="M1080 0H0V1080H1080V0Z" fill="#FF6625"/>
<path d="M566.474 473.485C575.153 477.652 581.517 480.033 585.567 480.628C617.387 493.127 641.398 504.734 657.597 515.448C674.376 526.162 688.55 541.042 700.121 560.089C712.271 580.921 718.346 608.003 718.346 641.335C718.346 691.928 702.725 727.046 671.483 746.688C640.819 766.33 593.088 776.151 528.289 776.151C461.755 776.151 408.527 766.032 368.607 745.795L364.268 643.121H386.831C396.667 643.121 403.031 648.478 405.924 659.192C414.602 690.143 422.413 711.868 429.356 724.367C436.877 736.272 447.869 744.605 462.333 749.366C476.219 754.128 499.361 757.104 531.761 758.294C564.739 757.699 587.302 752.045 599.452 741.331C611.602 730.022 617.677 710.082 617.677 681.512C617.677 664.251 614.784 650.859 608.998 641.335C603.791 631.217 593.956 621.991 579.492 613.658C566.763 606.515 541.307 594.909 503.122 578.838C464.358 563.362 437.166 551.16 421.545 542.232C405.924 532.709 392.328 519.317 380.757 502.055C368.028 484.794 361.664 461.283 361.664 431.523C361.664 394.024 375.839 363.371 404.188 339.562C433.116 315.754 480.558 303.85 546.514 303.85C608.42 303.85 655.572 314.861 687.972 336.884L693.179 427.951H670.615C661.358 427.951 654.705 422.297 650.655 410.988C641.976 383.013 634.455 363.668 628.091 352.955C622.305 342.241 613.916 334.205 602.923 328.849C590.195 324.087 571.97 321.706 548.25 321.706C515.85 321.706 493.576 327.063 481.426 337.777C469.855 347.895 464.069 365.454 464.069 390.453C464.069 402.953 466.094 412.774 470.144 419.916C474.772 426.463 484.029 433.904 497.915 442.237C514.115 451.76 536.968 462.176 566.474 473.485Z" fill="white"/>
</g>
<defs>
<clipPath id="clip0_1_10">
<rect width="1080" height="1080" rx="540" fill="white"/>
</clipPath>
</defs>
</svg>
